<svg xmlns="http://www.w3.org/2000/svg" width="64" height="64" viewBox="0 0 38 38" fill="none">
  <circle cx="19" cy="19" r="18" fill="#1e1b3a" stroke="#5b52b0" stroke-width="1"/>
  <line x1="19" y1="19" x2="30" y2="10" stroke="#5b52b0" stroke-width="0.8"/>
  <line x1="19" y1="19" x2="32" y2="22" stroke="#5b52b0" stroke-width="0.8"/>
  <line x1="19" y1="19" x2="25" y2="31" stroke="#5b52b0" stroke-width="0.8"/>
  <line x1="19" y1="19" x2="13" y2="32" stroke="#5b52b0" stroke-width="0.8"/>
  <line x1="19" y1="19" x2="7" y2="22" stroke="#5b52b0" stroke-width="0.8"/>
  <line x1="19" y1="19" x2="9" y2="10" stroke="#5b52b0" stroke-width="0.8"/>
  <line x1="19" y1="19" x2="19" y2="5" stroke="#5b52b0" stroke-width="0.8"/>
  <line x1="30" y1="10" x2="19" y2="5" stroke="#5b52b0" stroke-width="0.8"/>
  <line x1="30" y1="10" x2="32" y2="22" stroke="#5b52b0" stroke-width="0.8"/>
  <line x1="32" y1="22" x2="25" y2="31" stroke="#5b52b0" stroke-width="0.8"/>
  <line x1="25" y1="31" x2="13" y2="32" stroke="#5b52b0" stroke-width="0.8"/>
  <line x1="13" y1="32" x2="7" y2="22" stroke="#5b52b0" stroke-width="0.8"/>
  <line x1="7" y1="22" x2="9" y2="10" stroke="#5b52b0" stroke-width="0.8"/>
  <line x1="9" y1="10" x2="19" y2="5" stroke="#5b52b0" stroke-width="0.8"/>
  <circle cx="19" cy="19" r="3" fill="#7c73c8"/>
  <circle cx="30" cy="10" r="2.5" fill="#7c73c8"/>
  <circle cx="32" cy="22" r="2.5" fill="#7c73c8"/>
  <circle cx="25" cy="31" r="2.5" fill="#7c73c8"/>
  <circle cx="13" cy="32" r="2.5" fill="#7c73c8"/>
  <circle cx="7" cy="22" r="2.5" fill="#7c73c8"/>
  <circle cx="9" cy="10" r="2.5" fill="#7c73c8"/>
  <circle cx="19" cy="5" r="2.5" fill="#7c73c8"/>
  <text
    x="19"
    y="23"
    text-anchor="middle"
    font-family="'DM Sans', sans-serif"
    font-weight="700"
    font-size="9"
    fill="#e0dcff"
    letter-spacing="0.5"
  >
    IMS
  </text>
</svg>
